<svg xmlns="http://www.w3.org/2000/svg" width="77.45" height="74.202" viewBox="0 0 77.45 74.202">
  <g id="Group_220" data-name="Group 220" transform="translate(-16302.691 -2935.647)">
    <path id="Path_235" data-name="Path 235" d="M325.394,160.6a9.54,9.54,0,1,0-9.54,9.54A9.55,9.55,0,0,0,325.394,160.6Zm-15.894,0a6.352,6.352,0,1,1,6.353,6.352A6.359,6.359,0,0,1,309.5,160.6Z" transform="translate(16025.136 2792.277)" fill="#fff"/>
    <path id="Path_236" data-name="Path 236" d="M243.843,150.615H227.855c3.949-5.213,7.838-11.506,7.838-16.1a17.169,17.169,0,1,0-34.339,0c0,4.6,3.888,10.894,7.836,16.1H195.776l-15.554,40.927h77.45Zm-2.288,3.187,5.87,17.374H227.089V153.8ZM204.539,134.51a13.983,13.983,0,1,1,27.966,0c0,5.994-9.226,17.141-13.983,22.252-4.758-5.112-13.983-16.259-13.983-22.252ZM223.9,188.356H184.845l5.319-13.991H223.9Zm0-17.179H191.372l2.345-6.169v.123H223.9Zm0-9.234H194.883l3.093-8.14h13.737c2.933,3.561,5.413,6.126,5.668,6.387l1.142,1.167,1.14-1.167c.212-.217,1.97-2.041,4.238-4.689v6.442Zm3.188,12.423H248.5l4.726,13.991H227.089Z" transform="translate(16122.469 2818.306)" fill="#fff"/>
  </g>
</svg>
