<svg xmlns="http://www.w3.org/2000/svg" width="85.877" height="85.876" viewBox="0 0 85.877 85.876">
  <g id="Group_177" data-name="Group 177" transform="translate(-16121 -2824)">
    <path id="Path_232" data-name="Path 232" d="M155.878,210.461a1.34,1.34,0,0,0-.822-1.237L128.219,197.97a1.342,1.342,0,1,0-1.037,2.476l7.882,3.3-9.484,4.107-5.41-2.269-1.037,2.476,3.034,1.272-9.225,3.994-9.225-3.994,3.034-1.272-1.037-2.476-5.41,2.269-9.484-4.107,7.882-3.3a1.342,1.342,0,0,0-1.037-2.476L70.826,209.224A1.342,1.342,0,0,0,70,210.461v6.709c0,.126,5.419,19.153,5.419,19.153a1.341,1.341,0,0,0,2.149.663l5.346-4.455a1.341,1.341,0,0,1,2.081.476l5.253,11.555a1.342,1.342,0,0,0,2.095.463l7.219-6.187a1.293,1.293,0,0,1,1.018-.314,1.324,1.324,0,0,1,.927.529l10.358,13.81a1.342,1.342,0,0,0,2.147,0l10.359-13.81a1.328,1.328,0,0,1,.927-.529,1.3,1.3,0,0,1,1.018.315l7.217,6.185a1.342,1.342,0,0,0,2.095-.463l5.253-11.555a1.341,1.341,0,0,1,2.081-.476l5.346,4.455a1.341,1.341,0,0,0,2.149-.663s5.419-19.026,5.419-19.153V210.46Zm-83.192,2.018L111.6,228.8v3.8L72.686,216.277ZM112.94,226.45l-11.959-5.016,11.959-5.179,11.959,5.179Zm1.342,2.347,38.912-16.318v3.8L114.282,232.6v-3.8Zm24.212-23.608,12.573,5.272-9.639,4.043L129.009,209.3l9.484-4.107Zm-12.9,5.586,12.363,5.183L128.334,220l-12.015-5.2,9.279-4.019Zm-16.033,4.019L97.55,220l-9.626-4.037,12.363-5.183,9.279,4.019Zm-22.176-9.6,9.484,4.107L84.454,214.5l-9.639-4.043,12.573-5.272Zm61.057,28.417-3.764-3.137a4.024,4.024,0,0,0-6.241,1.427l-4.514,9.929-5.861-5.024a4.023,4.023,0,0,0-5.84.642l-9.284,12.378-9.284-12.378a4.026,4.026,0,0,0-5.841-.643l-5.863,5.025L87.442,231.9A4.024,4.024,0,0,0,81.2,230.47l-3.764,3.137L73.4,219.489l39.02,16.364a1.322,1.322,0,0,0,.519.1,1.35,1.35,0,0,0,.514-.117l.005.012,39.02-16.364-4.033,14.118Z" transform="translate(16050.997 2656.477)" fill="#fff"/>
    <path id="Path_233" data-name="Path 233" d="M268.51,42.937a1.341,1.341,0,0,0,1.1-.58c.558-.807,13.655-19.859,13.655-27.6a14.76,14.76,0,0,0-29.52,0c0,7.741,13.1,26.792,13.655,27.6a1.341,1.341,0,0,0,1.1.58Zm0-40.254a12.091,12.091,0,0,1,12.076,12.076c0,5.225-7.9,18.169-12.076,24.442-4.177-6.273-12.076-19.219-12.076-24.442A12.091,12.091,0,0,1,268.51,2.683Z" transform="translate(15895.427 2824.001)" fill="#fff"/>
    <path id="Path_234" data-name="Path 234" d="M313.6,51.8a8.051,8.051,0,1,0-8.051,8.051A8.059,8.059,0,0,0,313.6,51.8Zm-13.418,0a5.367,5.367,0,1,1,5.367,5.367A5.373,5.373,0,0,1,300.184,51.8Z" transform="translate(15858.387 2786.959)" fill="#fff"/>
  </g>
</svg>
