<svg xmlns="http://www.w3.org/2000/svg" width="84.755" height="81.183" viewBox="0 0 84.755 81.183">
  <g id="Group_221" data-name="Group 221" transform="translate(-16168.029 -3072.056)">
    <path id="Path_279" data-name="Path 279" d="M149.1,44.627a14.493,14.493,0,0,1-2.979-4.4,15.17,15.17,0,0,1-.207-5.524c.2-2.71.4-5.513-1.034-7.51s-4.22-2.7-6.869-3.341a15.1,15.1,0,0,1-5.172-1.883,14.9,14.9,0,0,1-3.331-4.262c-1.428-2.348-2.907-4.769-5.338-5.5s-4.882.3-7.365,1.314A15.421,15.421,0,0,1,111.38,15a15.424,15.424,0,0,1-5.42-1.531c-2.483-1.034-5.058-2.069-7.365-1.314s-3.91,3.207-5.348,5.555a14.891,14.891,0,0,1-3.331,4.262,15.1,15.1,0,0,1-5.172,1.883c-2.648.641-5.389,1.3-6.869,3.341s-1.251,4.8-1.034,7.51a15.171,15.171,0,0,1-.207,5.524,14.484,14.484,0,0,1-2.979,4.4C71.865,46.738,70,48.91,70,51.517s1.862,4.779,3.662,6.889a14.493,14.493,0,0,1,2.979,4.4,15.17,15.17,0,0,1,.207,5.524c-.2,2.71-.4,5.513,1.034,7.51s4.22,2.7,6.869,3.341a15.1,15.1,0,0,1,5.172,1.883,14.9,14.9,0,0,1,3.331,4.262c1.438,2.348,2.917,4.769,5.348,5.555s4.882-.3,7.365-1.314a15.415,15.415,0,0,1,5.41-1.531,15.424,15.424,0,0,1,5.42,1.531,16.007,16.007,0,0,0,5.689,1.572,5.465,5.465,0,0,0,1.676-.259c2.431-.786,3.91-3.207,5.348-5.555a14.891,14.891,0,0,1,3.331-4.262,15.1,15.1,0,0,1,5.172-1.883c2.648-.641,5.389-1.3,6.869-3.331s1.251-4.81,1.034-7.521a15.17,15.17,0,0,1,.207-5.524,14.484,14.484,0,0,1,2.979-4.4c1.789-2.11,3.652-4.283,3.652-6.889s-1.862-4.779-3.662-6.889Zm-.982,12.93a15.593,15.593,0,0,0-3.227,4.852,16.133,16.133,0,0,0-.269,6.02c.2,2.586.372,5.027-.807,6.652s-3.589,2.224-6.135,2.845h0a15.941,15.941,0,0,0-5.6,2.069,15.767,15.767,0,0,0-3.662,4.624c-1.376,2.245-2.679,4.355-4.645,5s-4.138-.311-6.476-1.283a16.537,16.537,0,0,0-5.917-1.593,16.547,16.547,0,0,0-5.917,1.624c-2.369.972-4.613,1.893-6.476,1.283s-3.269-2.752-4.645-5.027a15.757,15.757,0,0,0-3.652-4.6,15.942,15.942,0,0,0-5.6-2.069c-2.545-.621-4.934-1.2-6.135-2.845s-1.034-4.066-.807-6.652h0a16.133,16.133,0,0,0-.269-6.02,15.592,15.592,0,0,0-3.227-4.852C73,55.655,71.3,53.638,71.3,51.517S73,47.379,74.647,45.465a15.43,15.43,0,0,0,3.227-4.841,16.133,16.133,0,0,0,.269-6.02c-.2-2.586-.372-5.027.807-6.652s3.589-2.224,6.135-2.845h0a15.941,15.941,0,0,0,5.6-2.069,15.767,15.767,0,0,0,3.662-4.624c1.376-2.275,2.679-4.386,4.624-5.027s4.138.311,6.476,1.283a16.544,16.544,0,0,0,5.938,1.676,16.559,16.559,0,0,0,5.917-1.624c2.359-1.025,4.614-1.945,6.5-1.335s3.248,2.752,4.624,5.027a15.757,15.757,0,0,0,3.652,4.6,15.942,15.942,0,0,0,5.6,2.069c2.545.621,4.934,1.2,6.135,2.845s1.034,4.066.807,6.652h0a16.133,16.133,0,0,0,.269,6.02,15.429,15.429,0,0,0,3.227,4.841c1.655,1.934,3.362,4,3.362,6.072s-1.707,4.138-3.352,6.041Z" transform="translate(16099.026 3061.103)" fill="#fff" stroke="#fff" stroke-width="2"/>
    <path id="Path_280" data-name="Path 280" d="M271.729,160.036a3.207,3.207,0,0,0-4.345,1.407L254.66,186.331l-7.852-8.772a3.238,3.238,0,0,0-4.82,4.314l11,12.289a3.239,3.239,0,0,0,2.41,1.034h.414a3.228,3.228,0,0,0,2.462-1.738l14.865-29.078a3.186,3.186,0,0,0,.2-2.441,3.1,3.1,0,0,0-1.6-1.9Zm.259,3.755-14.875,29.1a1.935,1.935,0,0,1-3.166.4l-11-12.279a1.945,1.945,0,1,1,2.9-2.586l8.472,9.476a.7.7,0,0,0,.569.207.632.632,0,0,0,.486-.352l13.158-25.737a1.987,1.987,0,0,1,1.128-.962,1.947,1.947,0,0,1,2.328,2.731Z" transform="translate(15953.077 2935.164)" fill="#fff" stroke="#fff" stroke-width="2"/>
    <path id="Path_281" data-name="Path 281" d="M182.187,83.087a29.119,29.119,0,1,0,20.57,8.528,29.1,29.1,0,0,0-20.57-8.528Zm0,56.894a27.828,27.828,0,1,1,19.653-8.147,27.8,27.8,0,0,1-19.653,8.147Z" transform="translate(16028.219 3000.433)" fill="#fff" stroke="#fff" stroke-width="2"/>
  </g>
</svg>
