<svg xmlns="http://www.w3.org/2000/svg" width="99.877" height="53.265" viewBox="0 0 99.877 53.265">
  <path id="Path_285" data-name="Path 285" d="M230.465,196.748H215.639V181.275a1.374,1.374,0,0,0-1.37-1.37H199.46V164.418a1.374,1.374,0,0,0-1.37-1.37H165.7a1.374,1.374,0,0,0-1.37,1.37V179.89H149.52a1.374,1.374,0,0,0-1.37,1.37v15.472h-14.81a1.374,1.374,0,0,0-1.37,1.37v16.842a1.374,1.374,0,0,0,1.37,1.37h97.138a1.374,1.374,0,0,0,1.37-1.37V198.117a1.4,1.4,0,0,0-1.385-1.37Zm-17.564-5.7H204.05a1.37,1.37,0,0,0,0,2.739h8.85v2.95H183.28v-14.1h29.635v8.414ZM196.7,165.8v14.1H167.085v-2.348h8.85a1.37,1.37,0,0,0,0-2.739h-8.85v-9H196.7ZM150.89,182.646h29.635v2.348h-8.85a1.37,1.37,0,1,0,0,2.739h8.85v9H150.906V182.646Zm-16.195,28.6h8.85a1.37,1.37,0,1,0,0-2.739h-8.85v-9H164.33v14.1H134.695Zm32.373-11.755h29.619v8.955h-8.85a1.37,1.37,0,1,0,0,2.739h8.85v2.393H167.068Zm62.011,14.1H199.458v-8.4h8.85a1.37,1.37,0,1,0,0-2.739h-8.85V199.5h29.635v14.088Z" transform="translate(-131.971 -163.048)" fill="#fff"/>
</svg>
