<?xml version="1.0" encoding="utf-8"?>
<!-- Generator: Adobe Illustrator 26.3.1, SVG Export Plug-In . SVG Version: 6.00 Build 0)  -->
<svg version="1.1" id="Group_134" xmlns="http://www.w3.org/2000/svg" xmlns:xlink="http://www.w3.org/1999/xlink" x="0px" y="0px"
	 viewBox="0 0 1274 359.1" style="enable-background:new 0 0 1274 359.1;" xml:space="preserve">
<style type="text/css">
	.st0{fill:#FFFFFF;}
</style>
<g>
	<path id="Path_53" class="st0" d="M502,100c-0.9-21-10.9-40.2-35.4-40.2c-12.7,0-22.3,4.4-29.7,13.5c-9.2,10.9-14,28-14,48.5
		c0,17,3.1,31.5,9.6,41.9c7.9,13.5,20.1,19.2,34.9,19.2c20.1,0,33.6-9.6,39.8-31l2.2,1.7c-5.7,22.3-23.6,35.8-48.5,35.8
		c-19.2,0-35.4-6.1-45-21c-7.9-10.5-12.2-26.6-12.2-43.7c0-23.6,7.9-41.1,20.1-52C434.3,62.2,447.4,57,465.7,57
		c17.5,0,29.3,5.7,35.4,12.7l3.5-10.9l1.7,0.9c-1.7,11.8-2.2,30.6-1.7,39.8L502,100z"/>
	<path id="Path_54" class="st0" d="M573.2,121.9c0-9.2-4.4-17.9-15.7-17.9c-12.7,0-17.9,7-17.9,15.7c0,2.2,0.3,4.4,0.9,6.6
		c0.4,1.3-0.1,2.8-1.3,3.5c-1.7,1.2-3.6,1.8-5.7,1.7c-3.9,0-7-2.6-7-8.3c0-8.7,11.4-21.8,33.6-21.8c15.7,0,22.3,6.6,25.3,10.9
		c1.7,2.2,2.6,6.6,2.6,10v51.5c0,8.7,2.6,10,5.2,10c3.9,0,7-5.2,8.7-12.7l2.2,0.9c-2.2,12.2-8.7,17.9-17.9,17.9
		c-10,0-13.1-7-13.5-15.3c-8.7,10-18.8,15.3-28.4,15.3c-14.4,0-22.3-10-22.3-23.2c0-7.4,2.6-14,10-17c14-5.7,34.1-12.7,41.1-17.5
		L573.2,121.9z M539.1,163.8c0,10,4.8,18.3,14,18.3c10.9,0,16.2-7,19.2-14.4c0.4-2.2,0.9-5.7,1.3-7.9V135c-5.7,3.1-17,7.9-24,11.8
		C544.4,148.9,539.1,152.4,539.1,163.8"/>
	<path id="Path_55" class="st0" d="M605.1,186.9c9.2-0.4,10.9-0.9,11.4-5.7c0.4-5.7,0.9-11.4,0.9-22.3V134c0-10.9-0.4-20.5-0.4-25.3
		c0-2.6-1.3-3.1-10.9-3.1l0.4-2.2c8.7,0,17.3-0.9,25.8-2.6c0,4.4,0.4,11.4,0.9,14.9c7-7.4,16.6-14.9,30.6-14.9
		c12.2,0,18.8,6.1,21.4,11.4c1.7,3.5,2.2,6.6,2.2,10.9v58.5c0,3.9,1.3,4.4,11.4,5.2l-0.4,2.2c-4.8,0-11.8-0.9-19.2-0.9
		c-7.9,0-14,0.9-18.3,0.9v-2.2c7.9-0.4,10-1.7,10.5-5.2c0.4-4.4,0.9-13.1,0.9-31.5c0-27.1-0.4-31.5-1.7-34.5c-2.6-5.2-7-7.9-14-7.9
		c-10,0-17,5.2-21.4,13.1c-1.7,3.1-1.7,4.8-1.7,9.2v29.3c0,9.6,0,18.3,0.4,22.7c0.4,3.9,1.7,4.8,11.4,5.2l-0.4,2.2
		c-4.4,0-13.5-0.9-19.7-0.9c-7.4,0-14,0.9-19.2,0.9L605.1,186.9z"/>
	<path id="Path_56" class="st0" d="M754.9,103.9L754,107l-25.8,1.3c0,6.6-0.4,16.2-0.4,31.9c0,19.2,0,29.7,0.9,35.8
		c0.9,6.6,4.8,9.2,9.6,9.2c9.6,0,14.9-7.4,17-18.3h0.9l1.7,4.8c-3.9,12.2-14,18.3-25.8,18.3c-8.3,0-14-2.6-16.6-7
		c-1.7-2.6-3.1-6.1-3.1-11.8c0-14.9,0.4-44.6,0.9-62.9l-13.1-1.3l0.9-3.1h12.2V80.7c6.6-2.2,12.7-5.7,15.7-8.3l0.9,0.4
		c-0.4,5.7-0.9,21.4-0.9,31h25.9V103.9z"/>
	<path id="Path_57" class="st0" d="M804.3,189.6c-14.4,0-24-4.8-30.6-14c-4.4-6.6-7.4-17.5-7.4-28.4c0-24.5,12.7-45.9,39.3-45.9
		c27.5,0,31.5,23.2,31.5,31.5c0,3.5-0.9,7-3.1,7.9c-3.1,1.3-13.1,2.2-27.1,2.2h-24c-0.4,12.2,2.2,23.6,6.1,29.7
		c4.4,7.4,10.5,11.4,20.1,11.4c14.9,0,21.4-7.9,25.8-20.1l2.2,1.3C832.3,180.8,821.3,189.6,804.3,189.6 M804.7,103.9
		c-14,0-20.1,17-21,35.4h16.2c9.2,0,15.3-0.4,18.3-1.3c2.6-0.9,3.9-2.6,3.9-7C822.2,120.5,818.7,103.9,804.7,103.9"/>
	<path id="Path_58" class="st0" d="M865,134.5c0-13.1-0.9-21.8-1.7-25.3c-0.4-1.7-1.3-2.6-3.9-2.6h-6.1v-2.2
		c6.1,0,19.2-1.3,24.5-3.5l0.4,0.4c0.4,3.9,1.3,15.7,1.3,20.5h0.4c4.8-11.4,11.4-21,22.7-21c7,0,10.9,4.8,10.9,10.9
		c0,7.4-4.8,9.2-7.4,9.2s-4.8-1.3-5.2-3.5c-0.4-4.8-1.7-7.9-6.6-7.9c-6.1,0-10.9,7.9-13.5,17.5c-1,3.7-1.4,7.5-1.3,11.4
		c0,26.6,0,37.6,0.4,43.2c0,3.9,1.3,4.8,14.4,5.7l-0.4,2.2c-5.7,0-14.4-0.9-22.3-0.9c-8.3,0-13.5,0.9-19.7,0.9l0.4-2.2
		c8.7-0.4,10-1.3,10.5-4.8c0.4-3.9,0.9-15.3,0.9-28.4L865,134.5z"/>
	<path id="Path_59" class="st0" d="M918.8,52c9.8-0.2,19.6-0.9,29.3-2.2c0,7.4-1.3,26.6-1.3,49.4v18.3
		c10.5-10.5,19.7-15.7,31.5-15.7c11.4,0,19.2,4.8,24.5,13.1c3.9,5.7,6.1,16.2,6.1,26.6c0,30.6-14.9,48.5-42.4,48.5
		c-8.3,0-18.8-2.2-23.6-5.7c-3.5,1.7-7.9,3.9-10.9,5.7l-0.9-0.4c0-7.9,0.4-28.4,0.4-50.7V88.2c0-17-0.4-25.3-0.9-30.6
		c0-3.1-1.7-3.5-12.2-3.5L918.8,52z M966.4,186.9c19.2,0,25.3-19.7,25.3-44.1c0-10.5-1.7-20.1-5.7-26.6c-3.5-5.2-8.7-8.7-15.7-8.7
		c-11.4,0-18.3,7.4-21.8,14.4c-1.7,3.1-1.7,4.8-1.7,26.2c0,24,0.9,24.9,2.2,28C952.8,184.3,959.8,186.9,966.4,186.9"/>
	<path id="Path_60" class="st0" d="M1070.8,102.6c5.7,0,14,0,18.8-0.4c3.5-0.2,7-0.6,10.5-1.3c-0.4,6.1-0.9,17-0.9,29.7v23.2
		c0,14,0.4,21.8,0.9,26.6c0.4,3.1,1.7,3.9,12.2,3.5l-0.4,2.6c-3.9,0-8.7,0.4-14,0.9c-4.7,0.3-9.4,0.9-14,1.7
		c0.4-5.2,0-14.4,0.4-19.7c-5.7,7.9-18.8,19.7-34.9,19.7c-10.9,0-16.2-4.8-17.9-8.3c-1.7-2.2-2.2-6.6-2.2-10.9
		c0-10.5,0.4-29.7,0.4-46.3c0-8.7,0-12.7-0.4-15.7s-2.6-3.5-11.4-3.5l0.4-2.2c5.7,0,11.4,0,16.6-0.4s9.2-0.9,11.4-1.3
		c-0.9,5.7-1.7,20.1-1.7,41.9c0,19.2,0,27.5,1.3,32.3s4.4,7.4,9.6,7.4c12.2,0,21.8-7.9,26.2-18.3c1.7-3.9,1.7-7,1.7-11.4v-23.2
		c0-11.8,0-18.3-0.4-22.3c-0.4-2.6-2.6-3.1-12.7-3.1L1070.8,102.6z"/>
	<path id="Path_61" class="st0" d="M1130.2,134.5c0-13.1-0.9-21.8-1.7-25.3c-0.4-1.7-1.3-2.6-3.9-2.6h-6.1v-2.2
		c6.1,0,19.2-1.3,24.5-3.5l0.4,0.4c0.4,3.9,1.3,15.7,1.3,21h0.4c4.8-11.4,11.4-21,22.7-21c7,0,10.9,4.8,10.9,10.9
		c0,7.4-4.8,9.2-7.4,9.2s-4.8-1.3-5.2-3.5c-0.4-4.8-1.7-7.9-6.6-7.9c-6.1,0-10.9,7.9-13.5,17.5c-1,3.7-1.4,7.5-1.3,11.4
		c0,26.6,0,37.6,0.4,42.8c0,3.9,1.3,4.8,14.4,5.7l-0.4,2.2c-5.7,0-14.4-0.9-22.3-0.9c-8.3,0-13.5,0.9-19.7,0.9l0.4-2.2
		c8.7-0.4,10-1.3,10.5-4.8c0.4-3.9,0.9-14.9,0.9-28.4v-19.6h1.3V134.5z"/>
	<path id="Path_62" class="st0" d="M1184.8,98.3c4.8,0,11.8,0.4,17.9,0.4c6.6,0,14.9-0.4,18.8-0.4l0.4,2.2l-5.7,0.9
		c-3.5,0.4-3.9,1.3-3.1,4.4c6.1,17.9,17,51.1,21,62c6.1-17.5,15.3-47.2,18.8-60.3c1.3-4.4-0.4-5.7-5.2-6.1l-6.6-0.9l0.9-2.2
		c3.5,0,10,0.4,14.4,0.4c5.2,0,11.4-0.4,15.7-0.4l-0.4,2.2c-8.3,0.4-9.6,3.9-13.5,11.8c-5.2,14-21.8,62.5-30.6,87.8
		c-6.6,20.1-11.8,33.2-23.6,33.2c-7.9,0-11.4-5.7-11.4-10.5c-0.2-4.1,3-7.6,7.1-7.9c0.1,0,0.2,0,0.4,0c2.2-0.1,4.2,1.4,4.8,3.5
		c1.3,3.9,2.2,6.1,5.7,6.1c6.1,0,12.7-21.8,17.9-37.6c-2.2-1.3-5.2-8.7-6.6-11.8c-10-26.6-20.1-55.9-25.3-66.4
		c-2.6-5.7-3.9-6.6-7.4-7l-4.8-0.4L1184.8,98.3z"/>
	<path id="Path_64" class="st0" d="M172.2,359.1C31.9,300.5,28,249.4,47.7,203.5h124.5V359.1z M305.8,90
		c-44.1,2.6-70.8-18.3-103.1-23.2v106.6h109.2C295.8,143.7,281.8,116.2,305.8,90 M202.3,359.1c140.2-58.6,144.2-109.7,124.5-155.6
		H202.3V359.1z M68.6,90c44.1,2.6,70.8-18.3,103.1-23.2v106.6H62.5C78.7,143.7,93.1,116.2,68.6,90"/>
	<path id="Path_65" class="st0" d="M366.1,54.6c0,0-1.7,8.7-7.4,12.2c-11.4,7.9-21.4,10.9-34.1,10.9c-9.2,0-19.2-2.2-29.7-6.1
		c-10.5-4.4-19.2-9.6-26.2-15.7c14-4.8,23.6-15.3,34.5-24.9c8.7-7,16.6-11.4,25.8-12.7c1.3-0.3,2.6-0.5,3.9-0.4
		c10.5,0.4,13.5,11.8,8.7,17.5c-1.5,1.5-3.3,2.6-5.2,3.5c0,6.1,5.7,10.9,11.8,10.9s10.5-5.7,10.9-10.9c-0.4-10-5.2-18.8-14-24
		c-4.4-2.6-9.6-3.5-17-2.2c-10.9,1.7-22.7,8.7-35.4,20.5c-11.4,10.5-21,16.6-28.8,19.2c-2.3-2.4-4.3-5.1-6.1-7.9
		c12.2-7.9,18.3-17.5,18.3-28.4S271.8,0,263,0c-3.9,0-7.4,1.7-10.5,4.8c-4.4,4.8-7,11.4-7,19.7c0,5.7,1.7,11.4,4.8,17.9
		c-7.9,4.4-14.4,7-19.7,7c-1.4,0-2.7-0.3-3.9-0.9c-9.6-7.4-16.6-18.8-17-25.8C208.9,10,221.5,7,221.5,7c-11.3-3.7-23.1-5.5-34.9-5.2
		c-12-0.2-24,1.7-35.4,5.7c0,0,13.1,3.1,12.2,15.7c-0.4,7-7.4,18.3-17,25.8c-1.2,0.6-2.6,0.9-3.9,0.9c-5.2,0-11.8-2.2-19.7-7
		c3.1-6.6,4.8-12.7,4.8-17.9c0-8.7-2.2-15.3-7-19.7c-3.1-3.1-6.6-4.8-10.5-4.8C101.4,0.5,97,5.7,97,16.7s6.1,20.5,18.3,28.4
		c-1.8,2.8-3.9,5.4-6.1,7.9c-7.9-2.2-17.5-8.7-28.8-19.2C67.8,21.8,56,15.3,45,13.1c-7-1.3-12.7-0.4-17,2.2c-8.7,5.2-13.5,14-14,24
		c0.4,5.7,4.8,10.9,10.9,10.9s11.8-4.8,11.8-10.9c-2.6-1.3-3.9-1.7-5.2-3.5c-4.8-5.7-1.3-17,8.7-17.5c1.3,0,2.6,0.1,3.9,0.4
		c8.7,1.7,17,5.7,25.8,12.7c10.9,9.2,21,20.1,34.5,24.9c-7,6.6-15.7,11.8-26.2,15.7c-9.4,4-19.5,6.1-29.7,6.1
		c-12.7,0-22.7-3.1-34.1-10.9C9.2,63.8,7,55,7,55c-5.2-3.9-7.4,1.3-7,2.6c3.9,8.7,14.4,15.3,14,15.3c11.4,7,23.2,10.5,35.4,10.5
		s25.8-3.5,39.8-10.5c8.7-4.4,16.2-9.2,22.3-15.7c4.6,1.2,9.3,1.8,14,1.7c8.5,0.2,16.8-2.1,24-6.6c22.3-3.1,33.6-18.3,38-36.7
		c4.8,18.3,16.2,33.2,38,36.7c7.2,4.5,15.6,6.7,24,6.6c4.7,0,9.4-0.5,14-1.7c6.1,6.1,14,11.4,22.3,15.7c14,7,27.5,10.5,39.8,10.5
		s24-3.5,35.4-10.5c-0.4,0,9.6-6.6,12.2-15.7C374,56.3,371.4,50.7,366.1,54.6 M103.6,15.3c0-6.6,2.6-10,7.4-10
		c6.1,0,10,4.8,12.2,14.4c0.4,1.9,0.5,3.8,0.4,5.7c0,4.4-1.3,8.3-3.5,12.7l-0.9,0.9C108.4,31.4,103.6,23.6,103.6,15.3 M124.1,53.7
		c-2.9-0.1-5.8-0.4-8.7-0.9c1.9-2,3.5-4.2,4.8-6.6c4.5,2.4,9.2,4.4,14,6.1C130.9,53.3,127.5,53.7,124.1,53.7 M154.3,45.8
		c5.6-3.9,10.2-8.9,13.5-14.9c3.1-4.8,7-15.7,4.8-25.8l8.3-0.9C182.7,17,180.5,38.9,154.3,45.8 M193.6,4.8l8.3,0.9
		c-2.2,10,2.2,21,5.2,25.8c3.3,5.9,8,11,13.5,14.9C194.4,38.9,191.8,17,193.6,4.8 M251.7,19.2c1.7-9.6,5.7-14.4,12.2-14.4
		c4.8,0,7.4,3.5,7.4,10c0,8.7-5.2,16.6-15.7,23.6l-0.9-0.9c-2.2-4.4-3.5-8.3-3.5-12.7C251.2,23.1,251.7,21.4,251.7,19.2 M250.4,53.7
		c-3.5-0.1-7-0.4-10.5-0.9c5.2-2.2,9.6-3.9,14-6.1c1.5,2.3,3.1,4.5,4.8,6.6C256,53.3,253.4,53.7,250.4,53.7"/>
	<path id="Path_66" class="st0" d="M432,236.3c10.7,0,18.7,2.7,23.9,8s7.8,13,7.8,23.1c0.1,5.9-1.2,11.8-3.8,17.1
		c-2.5,4.8-6.3,8.8-11.1,11.4c-4.9,2.7-10.7,4-17.6,4c-1.3,0-3.3,0-5.8-0.1c-2.6-0.1-4.8-0.1-6.7-0.1c-2.1,0-4.2,0-6.2,0
		s-3.7,0.1-4.9,0.2v-1.8c1.6,0,3.1-0.3,4.6-0.7c1-0.3,1.8-1.1,2.1-2.2c0.4-1.6,0.6-3.2,0.5-4.9v-44.6c0.1-1.7-0.1-3.3-0.5-4.9
		c-0.3-1-1.1-1.8-2.1-2.2c-1.5-0.5-3.1-0.7-4.6-0.7v-1.8c1.3,0.1,2.9,0.1,4.9,0.2s4,0.1,6,0c2.1-0.1,4.5-0.1,7.1-0.2
		S430.3,236.3,432,236.3 M429.8,237.9c-2.8,0-4.6,0.5-5.4,1.5s-1.3,3.1-1.3,6.2v44.9c0,3.1,0.4,5.2,1.3,6.2s2.7,1.5,5.4,1.5
		c6.5,0,11.6-1.2,15.2-3.5c3.7-2.5,6.3-6.1,7.5-10.4c1.6-5.4,2.3-11,2.2-16.6c0-10.1-1.8-17.6-5.5-22.5
		C445.5,240.4,439,237.9,429.8,237.9"/>
	<path id="Path_67" class="st0" d="M486.2,252.7v38.9c0,2.5,0.5,4.2,1.6,5.1c1,0.9,2.8,1.3,5.3,1.3v1.9c-1-0.1-2.6-0.1-4.6-0.2
		s-4.1-0.1-6.2-0.1c-2,0-4.1,0-6.2,0.1s-3.7,0.2-4.7,0.2V298c2.5,0,4.2-0.4,5.3-1.3s1.6-2.6,1.6-5.1v-28.1c0-2.7-0.5-4.7-1.4-6
		s-2.8-1.9-5.4-1.9v-1.9c1.9,0.2,3.8,0.3,5.6,0.3c1.7,0,3.3-0.1,5-0.3C483.3,253.4,484.8,253.1,486.2,252.7 M481.5,231.2
		c3.2,0,5.9,2.5,5.9,5.8c0,3.2-2.5,5.9-5.8,5.9c-3.2,0-5.9-2.5-5.9-5.8c0-1.6,0.6-3.1,1.7-4.2C478.5,231.8,480,231.2,481.5,231.2"/>
	<path id="Path_68" class="st0" d="M538.7,253.6v1.8c-1.2,0.1-2.3,0.7-3.1,1.5c-1.2,1.4-2.2,3-2.7,4.8l-14.7,38.6h-1.5l-16.5-39.8
		c-1-2.3-1.9-3.8-2.8-4.3c-0.7-0.4-1.5-0.7-2.4-0.8v-1.9c1.2,0.1,2.4,0.1,3.7,0.2s2.7,0.1,4.2,0.1c1.9,0,3.8,0,5.9-0.1
		s4-0.1,5.8-0.3v1.9c-1.3,0-2.7,0.1-4,0.3c-1,0.1-1.9,0.8-2.2,1.8c-0.3,1,0,2.6,0.9,4.9l11.2,27.8l-0.5,0.4l10.2-26.9
		c1.1-3,1.3-5.1,0.4-6.3c-0.9-1.2-2.9-1.9-6.1-2.2v-1.8c1.6,0.1,2.9,0.1,3.9,0.2s2.3,0.1,3.6,0.1c1.4,0,2.6,0,3.7-0.1
		S537.7,253.7,538.7,253.6"/>
	<path id="Path_69" class="st0" d="M556.5,252.7v38.9c0,2.5,0.5,4.2,1.6,5.1c1,0.9,2.8,1.3,5.3,1.3v1.9c-1-0.1-2.6-0.1-4.6-0.2
		c-2.1-0.1-4.1-0.1-6.2-0.1c-2,0-4.1,0-6.2,0.1s-3.7,0.2-4.7,0.2V298c2.5,0,4.2-0.4,5.3-1.3c1-0.9,1.6-2.6,1.6-5.1v-28.1
		c0-2.7-0.5-4.7-1.4-6c-1-1.3-2.8-1.9-5.4-1.9v-1.9c1.9,0.2,3.8,0.3,5.6,0.3c1.7,0,3.3-0.1,5-0.3C553.6,253.4,555,253.1,556.5,252.7
		 M551.8,231.2c3.2,0,5.9,2.5,5.9,5.8c0,3.2-2.5,5.9-5.8,5.9c-3.2,0-5.9-2.5-5.9-5.8c0-1.6,0.6-3.1,1.7-4.2
		C548.8,231.8,550.3,231.2,551.8,231.2"/>
	<path id="Path_70" class="st0" d="M598.1,252.4c1.9-0.1,3.9,0.3,5.7,0.9c1.4,0.5,2.7,1.4,3.8,2.5c1.2,1.3,2,2.8,2.4,4.5
		c0.5,2.4,0.8,4.8,0.7,7.3v24c0,2.5,0.5,4.2,1.6,5.1c1,0.9,2.8,1.3,5.3,1.3v1.9c-1-0.1-2.6-0.1-4.7-0.2c-2.1-0.1-4.1-0.1-6.1-0.1
		s-3.9,0-5.8,0.1c-1.9,0.1-3.3,0.2-4.3,0.2V298c2.2,0,3.7-0.4,4.6-1.3c0.9-0.9,1.3-2.6,1.3-5.1v-26c0-1.7-0.1-3.4-0.5-5.1
		c-0.2-1.4-1-2.8-2-3.8c-1.4-1.1-3.1-1.6-4.8-1.4c-3.6-0.1-7.1,1.7-9.1,4.7c-2.4,3.4-3.6,7.5-3.5,11.6v20c0,2.5,0.4,4.2,1.3,5.1
		c0.9,0.9,2.4,1.3,4.6,1.3v1.9c-1-0.1-2.4-0.1-4.3-0.2c-1.9-0.1-3.8-0.1-5.8-0.1s-4,0-6.1,0.1s-3.7,0.2-4.7,0.2V298
		c2.5,0,4.2-0.4,5.3-1.3c1-0.9,1.6-2.6,1.6-5.1v-28.1c0-2.7-0.5-4.7-1.4-6c-1-1.3-2.8-1.9-5.4-1.9v-1.9c1.9,0.2,3.8,0.3,5.6,0.3
		c1.7,0,3.3-0.1,5-0.3c1.5-0.2,2.9-0.5,4.4-0.9v10.6c1.6-4.1,3.7-6.9,6.5-8.5C592,253.2,595,252.4,598.1,252.4"/>
	<path id="Path_71" class="st0" d="M643.4,252.4c5.3,0,9.4,1.6,12.4,4.8c3,3.2,4.4,8.2,4.4,15h-31.7l-0.1-1.7h23.2
		c0.1-2.7-0.1-5.5-0.7-8.1c-0.5-2.2-1.4-4.2-2.8-6c-1.2-1.5-3.1-2.3-5-2.2c-2.8,0-5.2,1.4-7.3,4.1c-2.1,2.8-3.4,7.1-3.8,13.1
		l0.3,0.4c-0.1,0.9-0.2,1.9-0.3,3s-0.1,2.2-0.1,3.2c-0.1,3.6,0.6,7.2,2,10.5c1.1,2.7,2.9,5,5.2,6.7c1.9,1.4,4.2,2.3,6.6,2.3
		c2.6,0,5.2-0.7,7.5-2s4.2-3.7,5.8-7l1.8,0.7c-0.7,2.1-1.8,4-3.2,5.8c-1.5,1.9-3.5,3.4-5.7,4.5c-2.5,1.2-5.2,1.8-7.9,1.8
		c-3.9,0.1-7.8-0.9-11.1-3c-3.1-2-5.6-4.9-7.1-8.2c-1.7-3.8-2.6-7.9-2.5-12.1c-0.1-4.7,0.7-9.3,2.5-13.6c1.5-3.6,3.9-6.6,7.1-8.8
		C635.8,253.4,639.6,252.3,643.4,252.4"/>
	<path id="Path_72" class="st0" d="M712.7,235.8l21.9,56.5c0.9,2.3,1.9,3.8,3.1,4.5c0.9,0.7,2,1.1,3.1,1.2v1.8
		c-1.2-0.1-2.7-0.2-4.4-0.2s-3.5,0-5.2,0c-2.3,0-4.5,0-6.6,0s-3.7,0.1-4.9,0.2V298c3.1-0.1,5-0.6,5.8-1.6s0.7-2.9-0.5-6l-16.7-44.7
		l1.4-1.2l-15.6,40.6c-1.1,2.4-1.7,5-1.8,7.6c-0.1,1.6,0.7,3.1,2.1,3.9c1.8,0.9,3.8,1.3,5.8,1.3v1.8c-1.7-0.1-3.4-0.2-5.3-0.2
		s-3.5,0-5.1,0c-1.5,0-2.8,0-3.8,0s-2,0.1-2.9,0.2v-1.8c1.4-0.4,2.6-1.1,3.7-2.1c1.6-1.6,2.7-3.6,3.4-5.7l21.1-54.5L712.7,235.8
		L712.7,235.8z M723.7,274v1.8h-26.8l0.9-1.8H723.7z"/>
	<path id="Path_73" class="st0" d="M770.9,252.4c1.5,0,3,0.3,4.3,1c1.2,0.6,2.1,1.5,2.9,2.6c0.7,1.1,1,2.3,1,3.5
		c0,1.4-0.5,2.8-1.4,4c-0.9,1.1-2.3,1.8-3.7,1.7c-1.2,0-2.4-0.4-3.3-1.2c-1-0.9-1.5-2.1-1.4-3.5c0-1.1,0.3-2.1,0.9-2.9
		c0.6-0.8,1.3-1.4,2.1-1.9c-0.4-0.6-1.1-0.9-1.9-0.9c-2.5,0-4.9,1-6.6,2.8c-1.9,1.9-3.4,4.3-4.4,6.8c-1,2.3-1.5,4.8-1.6,7.3v19.1
		c0,2.9,0.9,4.9,2.6,5.9c2.2,1.1,4.6,1.6,7,1.5v1.9c-1.4-0.1-3.3-0.1-5.8-0.2s-5.2-0.1-8-0.1c-2,0-4.1,0-6.1,0.1s-3.5,0.2-4.5,0.2
		V298c2.5,0,4.2-0.4,5.3-1.3c1-0.9,1.6-2.6,1.6-5.1v-28.1c0-2.7-0.5-4.7-1.4-6c-1-1.3-2.8-1.9-5.4-1.9v-1.9c1.9,0.2,3.8,0.3,5.6,0.3
		c1.7,0,3.3-0.1,5-0.3c1.5-0.2,2.9-0.5,4.4-0.9V264c0.7-1.9,1.7-3.6,2.8-5.3c1.2-1.7,2.7-3.2,4.4-4.4
		C766.8,253,768.8,252.4,770.9,252.4"/>
	<path id="Path_74" class="st0" d="M803.6,252.4c1.9,0,3.8,0.2,5.6,0.7c1.7,0.4,3.4,1.2,4.9,2.2c1.3,0.8,2.3,1.8,3.1,3.1
		c0.7,1.1,1.1,2.5,1.1,3.8c0.1,1.4-0.4,2.7-1.3,3.7c-0.9,0.9-2.1,1.3-3.4,1.3c-1.3,0-2.5-0.4-3.5-1.2c-1-0.8-1.6-2-1.5-3.3
		c-0.1-1.2,0.3-2.4,1.1-3.3c0.7-0.8,1.6-1.4,2.7-1.6c-0.8-1.2-1.9-2.2-3.2-2.7c-1.5-0.7-3.2-1.1-4.9-1.1c-1.6,0-3.1,0.4-4.5,1.1
		c-1.6,0.8-3.1,2.1-4.1,3.6c-1.4,2-2.5,4.3-3.1,6.7c-0.9,3.5-1.2,7.1-1.2,10.6c0,5.3,0.6,9.5,1.8,12.6c0.9,2.7,2.5,5,4.7,6.7
		c1.9,1.3,4.1,2,6.4,2c2.5,0,5-0.8,7.1-2.1c2.4-1.4,4.4-3.8,5.9-7.2l1.7,0.6c-0.7,2.1-1.7,4-3,5.8c-3.1,4.4-8.2,6.9-13.6,6.7
		c-3.6,0-7.1-1-10.1-2.9c-3.1-2-5.6-4.9-7.1-8.2c-1.9-4-2.8-8.3-2.7-12.7c-0.1-4.5,0.8-8.9,2.7-13c1.6-3.6,4.2-6.6,7.4-8.8
		C795.9,253.4,799.7,252.3,803.6,252.4"/>
</g>
</svg>
